<svg xml:space="preserve" viewBox="89.829 87.69600000000001 902.88 902.88" version="1.1" xmlns:xlink="http://www.w3.org/1999/xlink" xmlns="http://www.w3.org/2000/svg" style="max-height: 500px" width="902.88" height="902.88">
<desc>Created with Fabric.js 5.2.4</desc>
<defs>
</defs>
<g id="e468affa-5f84-4596-929c-1f2b45dc9be9" transform="matrix(1 0 0 1 540 540)">
<rect height="1080" width="1080" ry="0" rx="0" y="-540" x="-540" style="stroke: none; stroke-width: 1; stroke-dasharray: none; stroke-linecap: butt; stroke-dashoffset: 0; stroke-linejoin: miter; stroke-miterlimit: 4; fill: rgb(255,255,255); fill-rule: nonzero; opacity: 1; visibility: hidden;"/>
</g>
<g id="361107d3-5775-4aa8-91fc-12e31b14a3d0" transform="matrix(1 0 0 1 540 540)">
</g>
<g transform="matrix(45 0 0 45 540 540)">
<g style="">
		<g id="SVGRepo_iconCarrier" transform="matrix(1 0 0 1 0 0)">
<path stroke-linecap="round" d="M 22 12 C 22 17.5228 17.5228 22 12 22 C 6.47715 22 2 17.5228 2 12 C 2 6.47715 6.47715 2 12 2 C 17.5228 2 22 6.47715 22 12 Z" transform="translate(-12, -12)" style="stroke: none; stroke-width: 1; stroke-dasharray: none; stroke-linecap: butt; stroke-dashoffset: 0; stroke-linejoin: miter; stroke-miterlimit: 4; fill: rgb(0,55,219); fill-rule: nonzero; opacity: 0.5;"/>
</g>
		<g id="SVGRepo_iconCarrier" transform="matrix(1 0 0 1 0 5.75)">
<path stroke-linecap="round" d="M 16.807 19.0112 C 15.4398 19.9504 13.7841 20.5 12 20.5 C 10.2159 20.5 8.56023 19.9503 7.193 19.0111 C 6.58915 18.5963 6.33109 17.8062 6.68219 17.1632 C 7.41001 15.8302 8.90973 15 12 15 C 15.0903 15 16.59 15.8303 17.3178 17.1632 C 17.6689 17.8062 17.4108 18.5964 16.807 19.0112 Z" transform="translate(-12, -17.75)" style="stroke: none; stroke-width: 1; stroke-dasharray: none; stroke-linecap: butt; stroke-dashoffset: 0; stroke-linejoin: miter; stroke-miterlimit: 4; fill: rgb(0,55,219); fill-rule: nonzero; opacity: 1;"/>
</g>
		<g id="SVGRepo_iconCarrier" transform="matrix(1 0 0 1 0 -3)">
<path stroke-linecap="round" d="M 12 12 C 13.6569 12 15 10.6569 15 9 C 15 7.34315 13.6569 6 12 6 C 10.3432 6 9.00004 7.34315 9.00004 9 C 9.00004 10.6569 10.3432 12 12 12 Z" transform="translate(-12, -9)" style="stroke: none; stroke-width: 1; stroke-dasharray: none; stroke-linecap: butt; stroke-dashoffset: 0; stroke-linejoin: miter; stroke-miterlimit: 4; fill: rgb(0,55,219); fill-rule: nonzero; opacity: 1;"/>
</g>
</g>
</g>
</svg>